<svg width="351" height="90" viewBox="0 0 351 90" fill="none" xmlns="http://www.w3.org/2000/svg">
<path d="M6.98472 0.5C4.6573 0.5 3.51142 3.36333 5.18378 5.00019L14.1369 13.7632C14.6198 14.2359 15.2657 14.5002 15.9378 14.5002H71.7356C73.1657 14.5002 74.3251 15.6773 74.3251 17.1235C74.3251 39.9199 74.3251 50.5943 74.3251 73.9389C74.3251 74.6323 74.597 75.3076 75.0813 75.7985L84.2062 85.0487C85.8365 86.7015 88.629 85.5338 88.629 83.1994V3.1186C88.629 1.67239 87.4696 0.5 86.0395 0.5H6.98472Z" fill="#7755F0"/>
<path d="M20.1803 29.9535C18.5716 28.2972 19.732 25.5 22.0278 25.5H60.7396C62.1698 25.5 63.3291 26.6724 63.3291 28.1186V67.9772C63.3291 70.3215 60.5166 71.4846 58.8922 69.8121L20.1803 29.9535Z" fill="#9879FF"/>
<path fill-rule="evenodd" clip-rule="evenodd" d="M62.5579 26.2925L39.5413 49.9493L58.8551 69.8169C60.4799 71.4883 63.2913 70.3249 63.2913 67.9812V28.1184C63.2913 27.4083 63.0118 26.7642 62.5579 26.2925Z" fill="#826CE3"/>
<path d="M6.98472 0.5C4.6573 0.5 3.51142 3.36333 5.18378 5.00019L14.1369 13.7632C14.6198 14.2359 15.2657 14.5002 15.9378 14.5002H71.7356C73.1657 14.5002 74.3251 15.6773 74.3251 17.1235C74.3251 39.9199 74.3251 50.5943 74.3251 73.9389C74.3251 74.6323 74.597 75.3076 75.0813 75.7985L84.2062 85.0487C85.8365 86.7015 88.629 85.5338 88.629 83.1994V3.1186C88.629 1.67239 87.4696 0.5 86.0395 0.5H6.98472Z" fill="#7755F0"/>
<path d="M20.1803 29.9535C18.5716 28.2972 19.732 25.5 22.0278 25.5H60.7396C62.1698 25.5 63.3291 26.6724 63.3291 28.1186V67.9772C63.3291 70.3215 60.5166 71.4846 58.8922 69.8121L20.1803 29.9535Z" fill="#9879FF"/>
<path fill-rule="evenodd" clip-rule="evenodd" d="M62.5579 26.2925L39.5413 49.9493L58.8551 69.8169C60.4799 71.4883 63.2913 70.3249 63.2913 67.9812V28.1184C63.2913 27.4083 63.0118 26.7642 62.5579 26.2925Z" fill="#826CE3"/>
<path d="M138.272 18.9478C141.877 18.9478 145.06 19.6827 147.82 21.1525C150.636 22.5658 152.833 24.3466 154.41 26.4948V21.2729C154.41 20.4103 155.108 19.711 155.969 19.711H162.569C163.429 19.711 164.127 20.4103 164.127 21.2729V67.198C164.127 71.4945 163.226 75.3104 161.423 78.6458C159.621 82.0377 157.001 84.6948 153.565 86.6169C150.186 88.539 146.13 89.5 141.398 89.5C135.09 89.5 129.851 88.0019 125.683 85.0057C121.997 82.4063 119.721 78.9672 118.853 74.6882C118.669 73.776 119.398 72.9643 120.326 72.9643H126.976C127.663 72.9643 128.257 73.4212 128.53 74.0535C129.362 75.9847 130.779 77.572 132.78 78.8154C135.202 80.3418 138.075 81.105 141.398 81.105C145.285 81.105 148.411 79.9178 150.777 77.5434C153.199 75.1691 154.41 71.7206 154.41 67.198V59.3966C152.777 61.6013 150.552 63.4669 147.735 64.9933C144.975 66.4631 141.821 67.198 138.272 67.198C134.217 67.198 130.499 66.1805 127.119 64.1453C123.796 62.0536 121.148 59.1705 119.177 55.4959C117.262 51.7647 116.304 47.5531 116.304 42.8609C116.304 38.1687 117.262 34.0136 119.177 30.3956C121.148 26.7775 123.796 23.9791 127.119 22.0005C130.499 19.9654 134.217 18.9478 138.272 18.9478ZM154.41 43.0305C154.41 39.8082 153.734 37.0098 152.383 34.6355C151.087 32.2611 149.369 30.4521 147.228 29.2084C145.088 27.9647 142.779 27.3428 140.3 27.3428C137.822 27.3428 135.512 27.9647 133.372 29.2084C131.231 30.3956 129.485 32.1763 128.133 34.5507C126.838 36.8685 126.19 39.6386 126.19 42.8609C126.19 46.0832 126.838 48.9099 128.133 51.3407C129.485 53.7716 131.231 55.6372 133.372 56.9374C135.568 58.1812 137.878 58.803 140.3 58.803C142.779 58.803 145.088 58.1812 147.228 56.9374C149.369 55.6937 151.087 53.8847 152.383 51.5103C153.734 49.0795 154.41 46.2528 154.41 43.0305Z" fill="white"/>
<path d="M216.068 41.9281C216.068 43.1538 216.013 44.2965 215.902 45.3562C215.823 46.1196 215.166 46.6768 214.401 46.6768H180.158C180.44 50.408 181.82 53.4042 184.298 55.6655C186.777 57.9268 189.819 59.0574 193.424 59.0574C198.254 59.0574 201.763 57.1666 203.95 53.3849C204.248 52.8703 204.784 52.5279 205.377 52.5279H212.648C213.709 52.5279 214.459 53.5687 214.031 54.5418C212.538 57.9412 210.231 60.8032 207.111 63.1277C203.45 65.8413 198.887 67.198 193.424 67.198C188.974 67.198 184.974 66.2087 181.426 64.2301C177.933 62.1949 175.173 59.3683 173.145 55.7503C171.174 52.0757 170.188 47.8357 170.188 43.0305C170.188 38.2253 171.146 34.0136 173.061 30.3956C175.032 26.721 177.764 23.8943 181.257 21.9157C184.805 19.9371 188.861 18.9478 193.424 18.9478C197.817 18.9478 201.732 19.9088 205.168 21.8309C208.604 23.753 211.28 26.4666 213.195 29.9716C215.11 33.42 216.068 37.4056 216.068 41.9281ZM206.013 38.8754C205.957 35.3139 204.689 32.459 202.211 30.3108C199.732 28.1625 196.662 27.0884 193.001 27.0884C189.678 27.0884 186.833 28.1625 184.467 30.3108C182.102 32.4024 180.693 35.2573 180.243 38.8754H206.013Z" fill="white"/>
<path d="M233.405 27.5972V53.4607C233.405 55.2132 233.799 56.4852 234.587 57.2766C235.432 58.0116 236.841 58.379 238.812 58.379H243.168C244.029 58.379 244.727 59.0783 244.727 59.9409V64.8729C244.727 65.7356 244.029 66.4348 243.168 66.4348H237.122C232.785 66.4348 229.462 65.4173 227.152 63.3821C224.843 61.3469 223.688 58.0398 223.688 53.4607V27.5972H219.754C218.894 27.5972 218.196 26.8979 218.196 26.0353V21.2729C218.196 20.4103 218.894 19.711 219.754 19.711H223.688V9.65549C223.688 8.79288 224.386 8.09359 225.246 8.09359H231.846C232.707 8.09359 233.405 8.79288 233.405 9.6555V19.711H243.168C244.029 19.711 244.727 20.4103 244.727 21.2729V26.0353C244.727 26.8979 244.029 27.5972 243.168 27.5972H233.405Z" fill="white"/>
<path d="M310.515 7.5C311.376 7.5 312.073 8.19929 312.073 9.0619V64.8729C312.073 65.7356 311.376 66.4348 310.515 66.4348H304C303.139 66.4348 302.441 65.7356 302.441 64.8729V26.0708L284.94 65.5077C284.69 66.0715 284.132 66.4348 283.516 66.4348H278.864C278.25 66.4348 277.692 66.0727 277.441 65.5102L259.857 26.0708V64.8729C259.857 65.7356 259.159 66.4348 258.298 66.4348H251.783C250.922 66.4348 250.225 65.7356 250.225 64.8729V9.06191C250.225 8.19929 250.922 7.5 251.783 7.5H259.607C260.222 7.5 260.779 7.86205 261.03 8.4244L281.233 53.7151L301.354 8.42658C301.604 7.86306 302.162 7.5 302.777 7.5H310.515Z" fill="white"/>
<path d="M330.986 58.6334H349.283C350.144 58.6334 350.842 59.3327 350.842 60.1953V64.8729C350.842 65.7356 350.144 66.4348 349.283 66.4348H322.912C322.051 66.4348 321.354 65.7356 321.354 64.8729V9.06191C321.354 8.19929 322.051 7.5 322.912 7.5H329.427C330.288 7.5 330.986 8.19929 330.986 9.0619V58.6334Z" fill="white"/>
</svg>
