<svg viewBox="0 0 323.77703857421875 305" width="323.77703857421875" height="305"  fill="none" xmlns="http://www.w3.org/2000/svg">
<g clip-path="url(#clip0_1633_102)">
<path d="M99.3838 36.3661H135.161C140.298 36.3661 144.46 32.12 144.46 26.8822V9.26628C144.46 4.0285 140.298 -0.2146 135.161 -0.2146H9.58997C4.45826 -0.2146 0.290771 4.0285 0.290771 9.26628V26.8817C0.290771 32.1195 4.45826 36.3656 9.58997 36.3656H44.9238C50.0616 36.3656 54.223 40.6118 54.223 45.8495V209.796C54.223 215.031 50.0616 219.277 44.9238 219.277H9.58997C4.45826 219.277 0.290771 223.53 0.290771 228.764V246.374C0.290771 251.614 4.45826 255.861 9.58997 255.861H135.161C140.298 255.861 144.46 251.614 144.46 246.374V228.764C144.46 223.53 140.298 219.277 135.161 219.277H99.3838C94.2526 219.277 90.0851 215.031 90.0851 209.796V45.85C90.0851 40.6118 94.2526 36.3661 99.3838 36.3661Z" fill="currentColor"/>
<path d="M135.252 72.9494C130.114 72.9494 125.953 77.1955 125.953 82.4333V173.207C125.953 178.447 130.114 182.693 135.252 182.693H188.386C193.518 182.693 197.679 178.447 197.679 173.207V155.597C197.679 150.363 193.518 146.116 188.386 146.116H171.111C165.979 146.116 161.817 141.87 161.817 136.629V119.014C161.817 113.776 165.978 109.53 171.111 109.53H224.248C229.379 109.53 233.541 113.776 233.541 119.014V209.796C233.541 215.031 229.38 219.277 224.248 219.277H188.908C183.776 219.277 179.614 223.523 179.614 228.764V246.374C179.614 251.614 183.775 255.861 188.908 255.861H314.484C319.616 255.861 323.777 251.614 323.777 246.374V228.764C323.777 223.523 319.616 219.277 314.484 219.277H278.707C273.576 219.277 269.402 215.031 269.402 209.796V45.85C269.402 40.6123 273.576 36.3661 278.707 36.3661H314.484C319.616 36.3661 323.777 32.12 323.777 26.8822V9.26628C323.777 4.0285 319.616 -0.2146 314.484 -0.2146H188.908C183.776 -0.2146 179.614 4.0285 179.614 9.26628V26.8817C179.614 32.1195 183.775 36.3656 188.908 36.3656H224.248C229.379 36.3656 233.541 40.6118 233.541 45.8495V63.4649C233.541 68.7027 229.331 72.9489 224.199 72.9489H135.252V72.9494Z" fill="currentColor"/>
<path d="M14.7404 288.277H26.6963V304.012H22.711L22.1102 300.348C20.5938 302.144 18.4035 304.788 13.1809 304.788C6.29027 304.788 0.0299072 299.742 0.0299072 289.502C0.0299072 281.526 4.37299 274.01 14.0178 274.046C22.7892 274.046 26.2589 279.858 26.574 283.885H20.5938C20.5938 282.751 18.5618 279.094 14.34 279.094C10.0756 279.094 6.13295 282.096 6.13295 289.581C6.13295 297.546 10.3974 299.621 14.4618 299.621C15.7717 299.621 20.1579 299.093 21.3951 293.197H14.7404V288.277Z" fill="currentColor"/>
<path d="M44.3538 297.667C43.9174 299.22 42.3218 300.021 40.7628 300.021C36.2619 300.021 35.9402 296.369 35.7829 294.744H50.329V293.725C50.329 283.843 44.5543 281.811 40.3624 281.811C31.0815 281.811 30.202 290.145 30.202 292.748C30.202 301.653 34.7816 304.582 40.7628 304.582C44.3899 304.582 48.6182 302.872 50.0925 297.667H44.3538ZM35.9402 291.043C36.2619 288.192 37.657 286.488 40.2894 286.488C42.0788 286.488 44.2752 287.543 44.5903 291.043H35.9402Z" fill="currentColor"/>
<path d="M59.4583 274.817H53.8774V304.011H59.337V301.288H59.4217C60.7747 303.721 63.2431 304.582 65.5547 304.582C71.8572 304.582 74.4835 298.886 74.4835 292.953C74.4835 285.468 70.3408 281.81 65.676 281.81C62.0916 281.81 60.4174 283.8 59.5374 285.183H59.4588L59.4583 274.817ZM68.7453 293.36C68.7453 295.92 67.7501 299.905 64.1657 299.905C60.6108 299.905 59.2218 296.902 59.2218 293.681C59.2218 290.23 60.1743 286.729 64.0018 286.729C67.5497 286.73 68.7453 289.939 68.7453 293.36Z" fill="currentColor"/>
<path d="M78.3535 282.381H83.6918V286.124H83.7704C84.929 283.928 86.2033 281.811 89.5878 281.811C89.9455 281.811 90.3099 281.854 90.6677 281.896V287.664C90.1886 287.586 89.5878 287.586 89.0722 287.586C84.7286 287.586 83.9283 290.352 83.9283 292.748V304.012H78.3535V282.381Z" fill="currentColor"/>
<path d="M95.3443 298.074H89.363V304.012H95.3443V298.074Z" fill="currentColor"/>
<path d="M117.8 290.922V304.012H111.819V274.817H117.8V285.875H128.961V274.817H134.942V304.012H128.961V290.922H117.8Z" fill="currentColor"/>
<path d="M152.836 297.667C152.4 299.22 150.798 300.021 149.246 300.021C144.745 300.021 144.423 296.369 144.266 294.744H158.809V293.725C158.809 283.843 153.037 281.811 148.852 281.811C139.565 281.811 138.685 290.145 138.685 292.748C138.685 301.653 143.271 304.582 149.246 304.582C152.874 304.582 157.102 302.872 158.579 297.667H152.836ZM144.423 291.043C144.745 288.192 146.14 286.488 148.767 286.488C150.562 286.488 152.752 287.543 153.073 291.043H144.423Z" fill="currentColor"/>
<path d="M168.26 279.821H162.679V274.538H168.26V279.821ZM168.26 304.012H162.679V282.381H168.26V304.012Z" fill="currentColor"/>
<path d="M192.778 304.012H187.197V290.879C187.197 289.296 187.112 286.609 183.57 286.609C181.095 286.609 179.178 288.313 179.178 291.613V304.012H173.598V282.381H178.936V285.554H179.021C179.785 284.249 181.375 281.817 185.402 281.817C189.551 281.817 192.778 284.286 192.778 289.048V304.012H192.778Z" fill="currentColor"/>
<path d="M210.429 297.667C209.993 299.22 208.391 300.021 206.838 300.021C202.337 300.021 202.022 296.369 201.864 294.744H216.41V293.725C216.41 283.843 210.624 281.811 206.438 281.811C197.157 281.811 196.283 290.145 196.283 292.748C196.283 301.653 200.869 304.582 206.838 304.582C210.466 304.582 214.7 302.872 216.168 297.667H210.429ZM202.022 291.043C202.337 288.192 203.733 286.488 206.366 286.488C208.161 286.488 210.345 287.543 210.672 291.043H202.022Z" fill="currentColor"/>
<path d="M250.453 304.012H244.872V290.879C244.872 287.664 243.465 286.609 241.839 286.609C239.048 286.609 238.054 288.483 238.054 291.043V304.012H232.473V291C232.473 289.174 232.473 286.609 229.125 286.609C226.492 286.609 225.655 288.483 225.655 290.837V304.012H220.074V282.381H225.412V285.554H225.497C226.213 284.128 227.766 281.817 231.514 281.817C234.584 281.817 235.979 282.951 237.41 285.269C238.126 284.213 239.679 281.817 243.076 281.817C247.213 281.817 250.452 284.286 250.452 289.048V304.012H250.453Z" fill="currentColor"/>
<path d="M272.726 288.071C272.726 282.751 267.267 281.817 264.271 281.817C259.927 281.817 255.426 282.751 254.795 289.375H260.17C260.328 288.119 260.813 286.367 263.603 286.367C265.035 286.367 267.267 286.494 267.267 288.884C267.267 290.109 266.188 290.473 265.314 290.594L260.292 291.365C256.75 291.893 254.117 294.052 254.117 298.28C254.117 302.751 257.38 304.583 260.571 304.583C264.356 304.583 266.151 302.793 267.425 301.453C267.546 302.672 267.619 302.993 267.947 304.012H273.964V303.163C273.285 302.915 272.727 302.338 272.727 299.785L272.726 288.071ZM267.267 296.248C267.267 298.886 264.756 300.512 262.281 300.512C261.213 300.512 259.697 299.905 259.697 297.909C259.697 295.556 261.407 295.022 263.482 294.658C265.787 294.294 266.708 293.93 267.267 293.481V296.248Z" fill="currentColor"/>
<path d="M296.881 304.012H291.3V290.879C291.3 289.296 291.215 286.609 287.673 286.609C285.198 286.609 283.293 288.313 283.293 291.613V304.012H277.712V282.381H283.051V285.554H283.135C283.888 284.249 285.477 281.817 289.505 281.817C293.654 281.817 296.881 284.286 296.881 289.048V304.012Z" fill="currentColor"/>
<path d="M321.229 304.012H315.648V290.879C315.648 289.296 315.575 286.609 312.021 286.609C309.558 286.609 307.642 288.313 307.642 291.613V304.012H302.061V282.381H307.399V285.554H307.484C308.236 284.249 309.826 281.817 313.854 281.817C318.003 281.817 321.229 284.286 321.229 289.048L321.229 304.012Z" fill="currentColor"/>
</g>
<defs>
<clipPath id="clip0_1633_102">
<rect width="323.777" height="305" fill="currentColor"/>
</clipPath>
</defs>
</svg>