<svg viewBox="0 0 997 255.79281616210938" width="997" height="255.79281616210938"  fill="none" xmlns="http://www.w3.org/2000/svg">
<path d="M173.613 31.1597C148.103 31.1597 127.12 50.0512 127.12 81.472C127.12 110.926 141.342 129.394 170.371 129.394C196.156 129.394 216.891 110.365 216.891 78.944C216.891 46.3901 198.973 31.1597 173.613 31.1597ZM428.802 31.1597C405.978 31.1597 392.613 42.8519 392.613 59.7643C392.613 90.7655 432.759 82.7431 432.759 100.927C432.759 109.662 425.296 113.457 415.997 113.457C409.091 113.457 401.49 111.911 396.131 110.077L395.004 127.113C400.927 128.666 407.668 129.394 414.431 129.394C437.824 129.394 452.076 116.273 452.076 98.3711C452.076 68.9226 411.766 74.9737 411.766 57.9233C411.766 51.1607 417.414 46.3825 427.978 46.3825C433.757 46.3825 439.66 47.3577 445.014 48.9105L446.003 32.8633C440.368 31.8741 434.162 31.1597 428.802 31.1597ZM750.818 31.2971C717.844 31.2971 697.538 52.5872 697.538 82.4612C697.538 111.49 715.441 129.229 745.597 129.229C757.012 129.229 768.716 127.128 778.158 123.321V77.9548H759.83V111.066C756.173 112.193 752.221 112.742 747.713 112.742C728.408 112.742 717.404 100.907 717.404 80.7576C717.404 59.4806 730.95 47.6465 749.691 47.6465C758.57 47.6465 767.28 49.4661 774.888 52.4277L777.719 35.3913C769.541 32.9932 760.26 31.2971 750.818 31.2971ZM31.1666 32.6984L64.2777 127.828H85.271L118.519 32.6984H99.7794L81.0393 87.2424C78.2216 95.27 76.6778 100.628 75.2689 107.109H74.9667C73.276 100.203 71.1622 93.7227 69.3337 88.369L50.8959 32.6984H31.1666ZM239.286 32.6984V127.828H288.471V111.753H257.614V32.6984H239.286ZM308.201 32.6984V127.828H326.501V82.159L357.222 127.828H381.182L344.829 78.6418L379.644 32.6984H357.359L326.501 75.839V32.6984H308.201ZM466.447 32.6984L490.683 127.828H511.813L525.607 74.9872C527.304 68.6503 528.582 62.2948 529.289 55.6701H529.427C530.416 62.4387 531.535 69.3382 533.081 75.3994L546.903 127.828H569.297L593.533 32.6984H575.233L562.263 85.841C560.854 91.4765 559.592 97.5168 558.608 104.141H558.444C557.598 97.5168 556.06 90.7546 554.652 85.5388L539.978 32.6984H520.689L506.18 85.841C504.49 91.9022 503.35 98.3816 502.361 104.718H502.223C501.378 98.0938 500.259 91.4631 498.706 85.264L485.737 32.6984H466.447ZM631.315 32.6984L598.067 127.828H616.505L623.127 108.373H659.343L665.965 127.828H685.997L652.034 32.6984H631.315ZM808.439 32.6984V127.828H860.153V112.193H826.767V86.3906H858.477V71.47H826.767V48.0587H860.153V32.6984H808.439ZM887.081 32.6984V127.828H904.832V93.8646C904.832 82.4558 904.544 66.397 903.98 58.2256C906.798 64.4246 911.164 71.8992 915.246 79.0814L943.439 127.828H965.834V32.6984H948.083V62.2923C948.083 73.989 948.365 92.0331 949.072 101.613C945.547 94.4252 940.769 85.9679 936.542 78.6418L909.751 32.6984H887.081ZM171.937 47.6465C188.28 47.6465 197.299 59.2124 197.299 80.3454C197.299 103.175 184.033 112.742 171.635 112.742C154.578 112.742 146.712 99.6435 146.712 79.4936C146.712 58.0728 158.831 47.6465 171.937 47.6465ZM640.878 53.6917H641.18C642.451 59.0454 643.858 63.6987 645.686 68.9146L654.562 93.8646H627.798L636.371 69.629C638.344 64.1374 639.751 58.6257 640.878 53.6917Z" fill="currentColor"/>
<path d="M438.529 198.446C429.95 198.446 424.763 204.23 424.763 212.048C424.763 219.944 429.693 224.633 437.403 224.633C440.196 224.633 443.308 224.09 445.838 223.149V211.279H442.404V220.923C441.049 221.337 439.594 221.61 437.897 221.61C432.154 221.61 428.445 217.985 428.445 211.636C428.445 204.837 432.948 201.441 438.199 201.441C440.544 201.441 442.87 201.919 444.987 202.788L445.536 199.545C443.27 198.826 440.945 198.446 438.529 198.446ZM500.795 198.446C495.051 198.446 491.727 201.482 491.727 205.673C491.727 213.719 503.24 211.525 503.24 217.269C503.24 220.404 500.665 221.638 497.607 221.638C495.833 221.638 493.834 221.231 492.359 220.704L492.194 224.028C493.669 224.406 495.452 224.633 497.305 224.633C503.234 224.633 506.84 221.342 506.84 216.774C506.84 208.872 495.271 210.804 495.271 205.288C495.271 202.908 497.125 201.304 500.602 201.304C502.113 201.304 503.744 201.571 505.219 201.991L505.411 198.913C503.9 198.614 502.341 198.446 500.795 198.446ZM612.74 198.446C606.997 198.446 603.672 201.482 603.672 205.673C603.672 213.719 615.213 211.525 615.213 217.269C615.213 220.404 612.644 221.638 609.58 221.638C607.806 221.638 605.807 221.231 604.332 220.704L604.14 224.028C605.614 224.406 607.425 224.633 609.278 224.633C615.207 224.633 618.785 221.342 618.785 216.774C618.785 208.872 607.217 210.804 607.217 205.288C607.217 202.908 609.071 201.304 612.548 201.304C614.059 201.304 615.689 201.571 617.164 201.991L617.357 198.913C615.846 198.614 614.287 198.446 612.74 198.446ZM644.422 198.556C635.813 198.556 631.975 204.404 631.975 212.185C631.975 219.362 635.381 224.578 643.571 224.578C646.143 224.578 648.565 224.105 650.495 223.314L650.11 220.209C648.6 220.964 646.248 221.473 644.395 221.473C638.466 221.473 635.739 217.907 635.739 211.636C635.739 206.042 638.25 201.579 644.065 201.579C645.996 201.579 647.875 201.88 649.836 202.486L650.22 199.326C648.41 198.876 646.389 198.556 644.422 198.556ZM339.333 198.721V224.358H342.796V198.721H339.333ZM255.965 198.776L246.677 224.276H250.03L252.145 218.313H263.686L265.802 224.276H269.182L259.812 198.776H255.965ZM281.08 198.776V224.276H284.542V211.663L294.709 224.276H299.353L288.169 211.114L298.941 198.776H294.681L284.542 210.811V198.776H281.08ZM307.816 198.776V201.689H315.153V224.276H318.615V201.689H325.979V198.776H307.816ZM360.766 198.776V224.276H373.873V221.39H364.256V212.543H373.434V209.74H364.256V201.661H373.873V198.776H360.766ZM390.525 198.776V224.276H393.932V216.087C393.932 212.04 393.807 205.366 393.658 202.65C394.491 204.353 395.786 206.239 396.955 208.091L407.067 224.276H410.831V198.776H407.452V206.03C407.452 210.257 407.515 217.101 407.671 220.236C406.724 218.426 405.461 216.277 404.292 214.466L394.399 198.776H390.525ZM463.095 198.776V224.276H476.202V221.39H466.557V212.543H475.735V209.74H466.557V201.661H476.202V198.776H463.095ZM522.804 198.776V224.276H535.912V221.39H526.294V212.543H535.472V209.74H526.294V201.661H535.912V198.776H522.804ZM552.563 198.776V224.276H565.203V221.308H556.053V198.776H552.563ZM579.025 198.776V224.276H591.637V221.308H582.487V198.776H579.025ZM664.179 198.776V224.276H667.669V212.543H680.666V224.276H684.128V198.776H680.666V209.602H667.669V198.776H664.179ZM704.984 198.776L695.697 224.276H699.049L701.165 218.313H712.733L714.849 224.276H718.201L708.831 198.776H704.984ZM729.714 198.776V224.276H733.204V212.735H742.217V209.932H733.204V201.661H742.712V198.776H729.714ZM752.494 198.776V201.689H759.83V224.276H763.293V201.689H770.657V198.776H752.494ZM257.806 202.073H257.916C258.371 203.428 258.977 204.94 259.427 206.223L262.752 215.565H253.052L256.322 206.278C256.778 204.995 257.428 203.314 257.806 202.073ZM706.825 202.073H706.963C707.412 203.428 707.997 204.94 708.446 206.223L711.771 215.565H702.072L705.369 206.278C705.825 204.995 706.448 203.314 706.825 202.073Z" fill="currentColor"/>
</svg>