<?xml version="1.0" encoding="UTF-8"?>
<svg xmlns="http://www.w3.org/2000/svg" version="1.1" viewBox="0 0 576 512">
  <defs>
    <style>
      .cls-1 {
        isolation: isolate;
        opacity: .4;
      }
    </style>
  </defs>
  <!-- Generator: Adobe Illustrator 28.6.0, SVG Export Plug-In . SVG Version: 1.2.0 Build 709)  -->
  <g>
    <g id="Layer_1">
      <g id="Layer_1-2" data-name="Layer_1">
        <path d="M24,355h528c13.3,0,24,10.7,24,24s-10.7,24-24,24H24c-13.3,0-24-10.7-24-24s10.7-24,24-24Z"/>
        <path class="cls-1" d="M403.1,92.1c-1-5.3-4.6-9.8-9.6-11.9s-10.7-1.5-15.2,1.6l-90.3,62.3-90.3-62.3c-4.5-3.1-10.2-3.7-15.2-1.6s-8.6,6.6-9.6,11.9l-19.9,107.9-107.9,19.9c-5.3,1-9.8,4.6-11.9,9.6s-1.5,10.7,1.6,15.2l51.3,74.3h74.9c7.9-63.1,61.7-112,127-112s119.1,48.9,127,112h74.9l51.3-74.3c3.1-4.5,3.7-10.2,1.6-15.2s-6.6-8.6-11.9-9.6l-107.9-19.9-19.9-107.9h0ZM382.7,319c-7.6-45.4-47.1-80-94.7-80s-87.1,34.6-94.7,80h189.4Z"/>
      </g>
    </g>
  </g>
</svg>