<svg width="351" height="90" viewBox="0 0 351 90" fill="none" xmlns="http://www.w3.org/2000/svg">
<path d="M6.55162 0C4.22419 0 3.07831 2.86333 4.75068 4.50019L13.7038 13.2632C14.1867 13.7359 14.8326 14.0002 15.5047 14.0002H71.3025C72.7326 14.0002 73.892 15.1773 73.892 16.6235C73.892 39.4199 73.892 50.0943 73.892 73.4389C73.892 74.1323 74.1639 74.8076 74.6482 75.2985L83.7731 84.5487C85.4034 86.2015 88.1959 85.0338 88.1959 82.6994V2.6186C88.1959 1.17239 87.0365 0 85.6064 0H6.55162Z" fill="#7755F0"/>
<path d="M19.7472 29.4535C18.1385 27.7972 19.2989 25 21.5947 25H60.3065C61.7367 25 62.896 26.1724 62.896 27.6186V67.4772C62.896 69.8215 60.0835 70.9846 58.4591 69.3121L19.7472 29.4535Z" fill="#9879FF"/>
<path fill-rule="evenodd" clip-rule="evenodd" d="M62.1248 25.7925L39.1082 49.4493L58.422 69.3169C60.0468 70.9883 62.8582 69.8249 62.8582 67.4812V27.6184C62.8582 26.9083 62.5786 26.2642 62.1248 25.7925Z" fill="#826CE3"/>
<path d="M6.55162 0C4.22419 0 3.07831 2.86333 4.75068 4.50019L13.7038 13.2632C14.1867 13.7359 14.8326 14.0002 15.5047 14.0002H71.3025C72.7326 14.0002 73.892 15.1773 73.892 16.6235C73.892 39.4199 73.892 50.0943 73.892 73.4389C73.892 74.1323 74.1639 74.8076 74.6482 75.2985L83.7731 84.5487C85.4034 86.2015 88.1959 85.0338 88.1959 82.6994V2.6186C88.1959 1.17239 87.0365 0 85.6064 0H6.55162Z" fill="#7755F0"/>
<path d="M19.7472 29.4535C18.1385 27.7972 19.2989 25 21.5947 25H60.3065C61.7367 25 62.896 26.1724 62.896 27.6186V67.4772C62.896 69.8215 60.0835 70.9846 58.4591 69.3121L19.7472 29.4535Z" fill="#9879FF"/>
<path fill-rule="evenodd" clip-rule="evenodd" d="M62.1248 25.7925L39.1082 49.4493L58.422 69.3169C60.0468 70.9883 62.8582 69.8249 62.8582 67.4812V27.6184C62.8582 26.9083 62.5786 26.2642 62.1248 25.7925Z" fill="#826CE3"/>
<path d="M137.839 18.4478C141.444 18.4478 144.627 19.1827 147.387 20.6525C150.203 22.0658 152.4 23.8466 153.977 25.9948V20.7729C153.977 19.9103 154.675 19.211 155.536 19.211H162.136C162.996 19.211 163.694 19.9103 163.694 20.7729V66.698C163.694 70.9945 162.793 74.8104 160.99 78.1458C159.188 81.5377 156.568 84.1948 153.132 86.1169C149.753 88.039 145.697 89 140.965 89C134.657 89 129.418 87.5019 125.25 84.5057C121.564 81.9063 119.287 78.4672 118.42 74.1882C118.236 73.276 118.964 72.4643 119.893 72.4643H126.543C127.23 72.4643 127.824 72.9212 128.097 73.5535C128.929 75.4847 130.346 77.072 132.347 78.3154C134.769 79.8418 137.642 80.605 140.965 80.605C144.852 80.605 147.978 79.4178 150.344 77.0434C152.766 74.6691 153.977 71.2206 153.977 66.698V58.8966C152.344 61.1013 150.119 62.9669 147.302 64.4933C144.542 65.9631 141.388 66.698 137.839 66.698C133.783 66.698 130.066 65.6805 126.686 63.6453C123.363 61.5536 120.715 58.6705 118.744 54.9959C116.829 51.2647 115.871 47.0531 115.871 42.3609C115.871 37.6687 116.829 33.5136 118.744 29.8956C120.715 26.2775 123.363 23.4791 126.686 21.5005C130.066 19.4654 133.783 18.4478 137.839 18.4478ZM153.977 42.5305C153.977 39.3082 153.301 36.5098 151.949 34.1355C150.654 31.7611 148.936 29.9521 146.795 28.7084C144.655 27.4647 142.345 26.8428 139.867 26.8428C137.388 26.8428 135.079 27.4647 132.939 28.7084C130.798 29.8956 129.052 31.6763 127.7 34.0507C126.404 36.3685 125.757 39.1386 125.757 42.3609C125.757 45.5832 126.404 48.4099 127.7 50.8407C129.052 53.2716 130.798 55.1372 132.939 56.4374C135.135 57.6812 137.445 58.303 139.867 58.303C142.345 58.303 144.655 57.6812 146.795 56.4374C148.936 55.1937 150.654 53.3847 151.949 51.0103C153.301 48.5795 153.977 45.7528 153.977 42.5305Z" fill="black"/>
<path d="M215.635 41.4281C215.635 42.6538 215.579 43.7965 215.469 44.8562C215.39 45.6196 214.733 46.1768 213.967 46.1768H179.725C180.007 49.908 181.387 52.9042 183.865 55.1655C186.344 57.4268 189.385 58.5574 192.99 58.5574C197.821 58.5574 201.33 56.6666 203.517 52.8849C203.815 52.3703 204.35 52.0279 204.944 52.0279H212.215C213.276 52.0279 214.026 53.0687 213.598 54.0418C212.105 57.4412 209.798 60.3032 206.678 62.6277C203.017 65.3413 198.454 66.698 192.99 66.698C188.541 66.698 184.541 65.7087 180.992 63.7301C177.5 61.6949 174.74 58.8683 172.712 55.2503C170.741 51.5757 169.755 47.3357 169.755 42.5305C169.755 37.7253 170.713 33.5136 172.628 29.8956C174.599 26.221 177.331 23.3943 180.824 21.4157C184.372 19.4371 188.428 18.4478 192.99 18.4478C197.384 18.4478 201.299 19.4088 204.735 21.3309C208.171 23.253 210.847 25.9666 212.762 29.4716C214.677 32.92 215.635 36.9056 215.635 41.4281ZM205.58 38.3754C205.524 34.8139 204.256 31.959 201.778 29.8108C199.299 27.6625 196.229 26.5884 192.568 26.5884C189.245 26.5884 186.4 27.6625 184.034 29.8108C181.668 31.9024 180.26 34.7573 179.81 38.3754H205.58Z" fill="black"/>
<path d="M232.971 27.0972V52.9607C232.971 54.7132 233.366 55.9852 234.154 56.7766C234.999 57.5116 236.407 57.879 238.379 57.879H242.735C243.596 57.879 244.293 58.5783 244.293 59.4409V64.3729C244.293 65.2356 243.596 65.9348 242.735 65.9348H236.689C232.352 65.9348 229.028 64.9173 226.719 62.8821C224.41 60.8469 223.255 57.5398 223.255 52.9607V27.0972H219.321C218.46 27.0972 217.763 26.3979 217.763 25.5353V20.7729C217.763 19.9103 218.46 19.211 219.321 19.211H223.255V9.15549C223.255 8.29288 223.952 7.59359 224.813 7.59359H231.413C232.274 7.59359 232.971 8.29288 232.971 9.1555V19.211H242.735C243.596 19.211 244.293 19.9103 244.293 20.7729V25.5353C244.293 26.3979 243.596 27.0972 242.735 27.0972H232.971Z" fill="black"/>
<path d="M310.082 7C310.943 7 311.64 7.69929 311.64 8.5619V64.3729C311.64 65.2356 310.943 65.9348 310.082 65.9348H303.566C302.706 65.9348 302.008 65.2356 302.008 64.3729V25.5708L284.507 65.0077C284.257 65.5715 283.699 65.9348 283.083 65.9348H278.431C277.816 65.9348 277.259 65.5727 277.008 65.0102L259.424 25.5708V64.3729C259.424 65.2356 258.726 65.9348 257.865 65.9348H251.35C250.489 65.9348 249.791 65.2356 249.791 64.3729V8.56191C249.791 7.69929 250.489 7 251.35 7H259.174C259.788 7 260.346 7.36205 260.596 7.9244L280.8 53.2151L300.92 7.92658C301.171 7.36306 301.729 7 302.344 7H310.082Z" fill="black"/>
<path d="M330.553 58.1334H348.85C349.711 58.1334 350.409 58.8327 350.409 59.6953V64.3729C350.409 65.2356 349.711 65.9348 348.85 65.9348H322.479C321.618 65.9348 320.921 65.2356 320.921 64.3729V8.56191C320.921 7.69929 321.618 7 322.479 7H328.994C329.855 7 330.553 7.69929 330.553 8.5619V58.1334Z" fill="black"/>
</svg>
