<?xml version="1.0" encoding="UTF-8"?>
<svg xmlns="http://www.w3.org/2000/svg" version="1.1" viewBox="0 0 512 512">
  <!-- Generator: Adobe Illustrator 28.6.0, SVG Export Plug-In . SVG Version: 1.2.0 Build 709)  -->
  <g>
    <g id="Layer_1">
      <path d="M361.5,1.2c5,2.1,8.6,6.6,9.6,11.9l19.9,107.9,107.9,19.8c5.3,1,9.8,4.6,11.9,9.6,2.1,5,1.5,10.7-1.6,15.2l-62.3,90.4,62.3,90.3c3.1,4.5,3.7,10.2,1.6,15.2s-6.6,8.6-11.9,9.6l-107.9,19.9-19.9,107.9c-1,5.3-4.6,9.8-9.6,11.9-5,2.1-10.7,1.5-15.2-1.6l-90.3-62.3-90.3,62.3c-4.5,3.1-10.2,3.7-15.2,1.6s-8.6-6.6-9.6-11.9l-19.9-107.9-107.9-19.9c-5.3-1-9.8-4.6-11.9-9.6s-1.5-10.7,1.6-15.2l62.3-90.3L2.8,165.7c-3.1-4.5-3.7-10.2-1.6-15.2s6.6-8.6,11.9-9.6l107.9-19.9,19.9-107.9c1-5.3,4.6-9.8,9.6-11.9s10.7-1.5,15.2,1.6l90.3,62.3L346.3,2.8c4.5-3.1,10.2-3.7,15.2-1.6ZM384,256c0-70.7-57.3-128-128-128s-128,57.3-128,128,57.3,128,128,128,128-57.3,128-128Z"/>
    </g>
  </g>
</svg>