<svg viewBox="0 0 597 185" width="597" height="185"  fill="none" xmlns="http://www.w3.org/2000/svg">
<g clip-path="url(#clip0_239_8135)">
<path d="M199.37 23.6801C161.375 23.6801 130.571 54.4969 130.571 92.4999C130.571 130.507 161.375 161.32 199.37 161.32C237.362 161.32 268.169 130.507 268.169 92.4999C268.169 54.4969 237.362 23.6801 199.37 23.6801ZM199.371 138.75C174.09 138.75 153.6 118.033 153.6 92.4955C153.6 66.9579 174.09 46.2501 199.371 46.2501C224.647 46.2501 245.147 66.9579 245.147 92.4955C245.147 118.033 224.647 138.75 199.371 138.75ZM541.621 72.4694C538.152 72.4697 535.052 73.2486 531.801 75.1264C523.032 80.1909 519.621 90.2494 522.127 99.1459L509.58 106.392V76.152C518.595 73.9182 525.646 65.8587 525.646 55.6825C525.646 44.9454 518.497 39.7897 504.542 25.8305C490.533 39.8438 483.441 44.9181 483.441 55.6825C483.441 65.3162 490.07 73.8532 499.471 76.1596V106.388L486.93 99.145C489.434 90.2489 486.023 80.1921 477.255 75.1282C474.003 73.2503 470.904 72.4712 467.435 72.4712C460.986 72.4712 453.254 75.1607 440.859 78.4829C445.987 97.6251 446.833 106.307 456.153 111.689C459.432 113.583 463.078 114.507 466.704 114.507C472.223 114.507 477.678 112.345 481.726 108.217L499.471 118.466V133.2H456.072V143.375H552.983V133.2H509.58V118.465L527.329 108.215C531.378 112.343 536.833 114.506 542.352 114.506C545.977 114.506 549.624 113.581 552.903 111.687C562.223 106.305 563.069 97.6233 568.197 78.4811C555.802 75.1589 548.07 72.469 541.621 72.4694ZM476.209 98.9063C474.225 102.343 470.667 104.394 466.689 104.394C464.751 104.394 462.851 103.888 461.193 102.931C457.476 100.784 456.286 97.8054 453.13 85.5775C459.456 83.8121 464.126 82.5846 467.42 82.5846C469.227 82.5846 470.563 82.9497 472.185 83.8867C477.434 86.918 479.239 93.6559 476.209 98.9063ZM504.529 66.6778C498.468 66.6778 493.537 61.7453 493.537 55.6825C493.537 51.3886 495.521 48.8682 504.528 40.0213C513.534 48.8747 515.521 51.4041 515.521 55.6825C515.521 61.7453 510.59 66.6778 504.529 66.6778ZM547.834 102.929C546.176 103.887 544.275 104.393 542.338 104.393C538.36 104.393 534.801 102.341 532.818 98.9045C531.396 96.4413 530.99 93.4258 531.703 90.6311C532.433 87.7727 534.258 85.3768 536.841 83.8847C538.464 82.9479 539.8 82.5828 541.608 82.5828C544.902 82.5828 549.572 83.8103 555.897 85.5757C552.741 97.8036 551.551 100.782 547.834 102.929ZM504.528 0.185059C453.561 0.185059 412.241 41.5227 412.241 92.4998C412.241 143.482 453.561 184.815 504.528 184.815C555.49 184.815 596.815 143.482 596.815 92.4998C596.815 41.5227 555.49 0.185059 504.528 0.185059ZM504.528 174.64C459.249 174.64 422.413 137.792 422.413 92.4998C422.413 47.2078 459.249 10.3601 504.528 10.3601C549.806 10.3601 586.643 47.2078 586.643 92.4998C586.643 137.792 549.806 174.64 504.528 174.64ZM335.393 84.3414L391.415 156.88H360.949H360.943L319.482 102.118L301.274 122.367V156.88H279.081V28.1201H301.274V89.2L356.052 28.1201H385.715L335.393 84.3414ZM0.184937 156.88H27.067L45.1927 129.13H98.3903V156.88H120.584V28.1201H84.6644L0.184937 156.88ZM98.3903 108.965H58.364L98.3903 47.6857V108.965Z" fill="currentColor"/>
</g>
<defs>
<clipPath id="clip0_239_8135">
<rect width="597" height="185" fill="currentColor"/>
</clipPath>
</defs>
</svg>