<svg viewBox="0 0 1024 521" width="1024" height="521"  fill="none" xmlns="http://www.w3.org/2000/svg">
<g clip-path="url(#clip0_239_8307)">
<path d="M854.423 248.44H895.187L920.179 175.384L916.926 248.44H947.519L977.655 176.069L967.979 248.44H1005.31L1024.15 103.113H975.91L953.139 173.821L953.147 103.122H911.096L854.423 248.44Z" fill="currentColor"/>
<path d="M1001.17 267.228C957.68 412.473 777.583 521.322 562.031 521.322C442.911 521.322 334.683 488.188 254.27 433.809L254.572 432.156C322.283 475.24 420.532 497.984 527.116 488.645C702.15 473.458 839.592 377.337 852.942 267.072L1001.17 267.228Z" fill="currentColor"/>
<path d="M287.815 238.288C287.669 239.942 287.358 242.053 287.057 243.56H267.109H246.558C250.186 228.949 257.295 219.61 267.109 217.499C268.48 217.197 269.978 217.051 271.504 217.051C282.991 217.052 288.272 226.546 287.815 238.288ZM274.685 178.49C272.263 178.49 269.677 178.645 267.11 178.938C238.235 182.703 201.665 208.161 198.494 274.437C198.494 274.748 198.494 274.894 198.494 275.04V285.586C199.993 318.729 216.331 344.031 254.573 344.031C259.087 344.031 263.172 343.738 267.11 343.281C308.074 337.552 317.45 303.97 320.63 294.321H276.777C275.123 297.794 271.962 301.558 267.11 303.669C264.697 304.875 261.673 305.47 258.347 305.47C243.992 305.47 240.364 291.461 241.104 274.748H267.11H326.368C328.927 265.107 329.53 255.924 329.996 247.48C329.996 247.325 329.996 247.179 329.996 247.024V237.685C328.031 195.368 299.466 178.49 274.685 178.49Z" fill="currentColor"/>
<path d="M732.689 307.58C730.871 308.192 728.751 308.484 726.658 308.484C719.393 308.484 712.43 305.77 713.034 294.924C713.481 283.327 720.737 278.201 728.294 277.306C729.82 277.151 731.163 277.004 732.69 276.694C739.498 275.79 746.287 274.291 752.327 270.38C749.155 290.255 743.728 304.117 732.689 307.58ZM749.155 178.646C743.572 178.646 737.97 179.084 732.689 179.99C711.371 183.763 693.99 196.712 686.89 230.311H728.906C729.82 226.693 731.163 223.677 732.689 221.42C736.17 216.294 741.305 214.183 747.51 214.183C754.309 214.183 761.417 216.897 760.961 227.899C760.047 244.612 744.924 245.069 732.689 245.672C730.724 245.827 728.906 245.827 727.243 245.973C693.378 249.437 669.811 260.585 667.838 302.153C667.838 302.308 667.838 302.464 667.838 302.6V308.339C668.899 333.787 685.228 344.031 703.969 344.031C713.19 344.031 724.064 339.965 732.69 333.193C736.317 330.324 739.498 326.861 742.065 323.087L741.453 324.905L737.68 340.12H781.359C781.359 340.12 803.134 228.045 804.185 220.516C804.185 220.361 804.185 220.214 804.331 220.068V208.015C800.107 181.652 767.751 178.646 749.155 178.646Z" fill="currentColor"/>
<path d="M756.877 90.0729C689.148 46.9879 590.889 24.2349 484.314 33.5829C293.417 50.1499 147.239 162.966 157.967 285.439C159.639 304.719 165.076 322.94 173.848 340.12H0.907048C0.459048 334.399 0.149048 328.661 0.149048 322.94C0.149048 145.045 201.363 0.741943 449.399 0.741943C568.528 0.741943 676.748 34.0309 757.179 88.41L756.877 90.0729Z" fill="currentColor"/>
<path d="M325.911 340.12H371.554L388.943 256.518C392.571 240.252 398.026 226.545 412.528 226.545C419.911 226.545 425.22 231.653 424.781 241.751L404.513 340.119H450.165L474.508 221.264C475.842 190.232 457.74 178.49 436.723 178.49C422.203 178.49 407.838 188.277 398.463 202.44H398.025L402.384 182.401H358.422L325.911 340.12Z" fill="currentColor"/>
<path d="M617.352 182.401H569.881L532.553 271.732H532.087L531.63 182.401H485.85L492.347 340.12H545.995L617.352 182.401Z" fill="currentColor"/>
<path d="M597.404 340.12H643.047L675.377 182.401H629.889L597.404 340.12Z" fill="currentColor"/>
<path d="M687.493 123.207H641.832L633.206 165.387H678.858L687.493 123.207Z" fill="currentColor"/>
</g>
<defs>
<clipPath id="clip0_239_8307">
<rect width="1024" height="521" fill="currentColor"/>
</clipPath>
</defs>
</svg>