<svg viewBox="0 0 571 246" width="571" height="246"  fill="none" xmlns="http://www.w3.org/2000/svg">
<path fill-rule="evenodd" clip-rule="evenodd" d="M424.178 48.0757H356.814L360.148 38.1602C363.173 29.2139 371.578 23.1858 381.016 23.1858H424.87C432.423 23.1858 438.431 29.9488 437.152 37.7342C436.14 43.8581 430.378 48.0757 424.178 48.0757ZM387.556 83.9034C386.555 90.0274 380.792 94.2556 374.593 94.2556H341.23L344.703 83.946C347.643 75.234 355.813 69.3657 365.016 69.3657H375.285C382.837 69.3657 388.856 76.1287 387.556 83.9034ZM334.04 115.546H372.952C390.059 115.546 405.878 103.862 408.615 86.9814C409.638 80.687 408.722 74.7122 406.591 69.3657H423.368C439.783 69.3657 454.931 58.3213 457.998 42.1967C462.078 20.7362 445.642 1.89575 424.87 1.89575H372.185C358.881 1.89575 347.057 10.3841 342.796 22.9941L311.564 115.546L301.807 144.472C301.466 145.462 302.691 146.229 303.436 145.484L334.04 115.546Z" fill="currentColor"/>
<path opacity="0.44701" fill-rule="evenodd" clip-rule="evenodd" d="M364.542 69.3723V69.3657H365.076C364.897 69.3657 364.719 69.3679 364.542 69.3723ZM375.345 69.3657H423.428H406.651C408.189 73.2253 409.094 77.4123 409.094 81.8107H387.793C387.807 74.954 382.21 69.3657 375.345 69.3657Z" fill="currentColor"/>
<path d="M31.3075 166.549C44.6773 166.549 56.8215 177.02 56.8215 193.73C56.8215 210.439 44.6773 220.799 31.3075 220.799C25.4025 220.799 18.272 218.571 14.5953 213.336V245.306H0V167.886H14.5953V174.124C18.272 168.888 25.4025 166.549 31.3075 166.549ZM28.5221 207.097C35.8755 207.097 41.8919 201.416 41.8919 193.73C41.8919 186.155 35.8755 180.251 28.5221 180.251C21.3916 180.251 15.041 185.821 15.041 193.73C15.041 201.75 21.7258 207.097 28.5221 207.097ZM119.882 192.95C119.882 194.398 119.771 196.18 119.659 198.52H80.4414C82.0012 204.535 86.9034 207.877 93.9225 207.877C99.159 207.877 104.396 205.761 107.515 202.084L116.094 210.662C111.192 217.234 102.056 220.799 92.9198 220.799C76.9875 220.799 65.289 209.882 65.289 193.841C65.289 177.02 77.9902 166.549 92.9198 166.549C107.738 166.549 119.882 177.02 119.882 192.95ZM80.4414 189.051H105.287C104.841 182.924 99.7161 179.248 93.1426 179.248C87.2377 179.248 82.0012 182.033 80.4414 189.051ZM160.994 167.886V179.137H149.964V219.796H135.369V179.137H125.899V167.886H135.369V148.837H149.964V167.886H160.994ZM220.935 192.95C220.935 194.398 220.824 196.18 220.712 198.52H181.494C183.054 204.535 187.956 207.877 194.976 207.877C200.212 207.877 205.449 205.761 208.568 202.084L217.147 210.662C212.245 217.234 203.109 220.799 193.973 220.799C178.041 220.799 166.342 209.882 166.342 193.841C166.342 177.02 179.043 166.549 193.973 166.549C208.791 166.549 220.935 177.02 220.935 192.95ZM181.494 189.051H206.34C205.894 182.924 200.769 179.248 194.196 179.248C188.291 179.248 183.054 182.033 181.494 189.051ZM261.936 166.549C264.721 166.549 267.841 166.995 270.18 168.22L266.838 182.145C263.718 180.474 261.156 180.251 259.373 180.251C251.908 180.251 246.783 187.157 246.783 201.973V219.796H232.188V167.886H246.672V178.914C249.569 170.225 255.474 166.549 261.936 166.549ZM333.018 166.549C346.388 166.549 358.532 177.02 358.532 193.73C358.532 210.439 346.388 220.799 333.018 220.799C327.113 220.799 319.983 218.571 316.306 213.336V245.306H301.711V167.886H316.306V174.124C319.983 168.888 327.113 166.549 333.018 166.549ZM330.233 207.097C337.586 207.097 343.603 201.416 343.603 193.73C343.603 186.155 337.586 180.251 330.233 180.251C323.102 180.251 316.752 185.821 316.752 193.73C316.752 201.75 323.437 207.097 330.233 207.097ZM409.226 167.886H423.821V219.796H409.226V213.336C405.549 218.46 398.307 220.799 392.514 220.799C379.144 220.799 367 210.439 367 193.73C367 177.02 379.144 166.66 392.514 166.66C398.53 166.66 405.549 168.888 409.226 174.124V167.886ZM395.299 207.209C402.43 207.209 408.78 201.639 408.78 193.73C408.78 185.709 402.095 180.362 395.299 180.362C387.946 180.362 381.818 186.043 381.818 193.73C381.818 201.305 387.946 207.209 395.299 207.209ZM468.276 166.549C471.061 166.549 474.181 166.995 476.52 168.22L473.178 182.145C470.058 180.474 467.496 180.251 465.713 180.251C458.248 180.251 453.123 187.157 453.123 201.973V219.796H438.528V167.886H453.012V178.914C455.909 170.225 461.814 166.549 468.276 166.549ZM535.459 219.796H517.298L499.026 197.294V219.796H484.431V140.148H499.026V183.704L512.173 167.886H530.891L510.613 190.722L535.459 219.796Z" fill="currentColor"/>
<path d="M553.313 106.755C562.365 106.755 569.561 114.135 569.561 123.186C569.561 132.237 562.365 139.57 553.313 139.57C544.26 139.57 537.111 132.237 537.111 123.186C537.111 114.135 544.26 106.755 553.313 106.755ZM553.313 136.692C560.787 136.692 566.683 130.658 566.683 123.186C566.683 115.713 560.787 109.632 553.313 109.632C545.885 109.632 539.943 115.713 539.943 123.186C539.943 130.658 545.885 136.692 553.313 136.692ZM559.487 120.494C559.487 123.557 558.187 125.135 555.913 125.646L559.951 131.308H556.145L552.338 125.878H551.177V131.308H547.789V115.341H554.148C557.769 115.341 559.487 117.848 559.487 120.494ZM551.177 118.451V123.046H553.777C555.495 123.046 556.145 121.747 556.145 120.726C556.145 119.704 555.495 118.451 553.823 118.451H551.177Z" fill="currentColor"/>

</svg>