<svg viewBox="0 0 397 301" width="397" height="301"  fill="none" xmlns="http://www.w3.org/2000/svg">
<g clip-path="url(#clip0_239_8146)">
<path d="M397 129.246H252.597V92.3244H397V129.246Z" fill="currentColor"/>
<path d="M378.244 129.246H252.597V36.902H378.244V129.246Z" fill="currentColor"/>
<path d="M326.333 129.246H252.597V1.52588e-05H326.333V129.246Z" fill="currentColor"/>
<path d="M340.84 129.246H252.597V14.4218H340.84V129.246Z" fill="currentColor"/>
<path d="M252.577 14.4436V129.234H326.325V14.4436H252.577Z" fill="currentColor"/>
<path d="M178.656 129.246H252.597V147.708H178.656V129.246Z" fill="currentColor"/>
<path d="M252.577 36.8817V129.234H340.882V36.8817H252.577Z" fill="currentColor"/>
<path d="M252.577 36.8817V129.234H326.325V36.8817H252.577Z" fill="currentColor"/>
<path d="M298.708 129.246H252.597V73.8195H298.708V129.246Z" fill="currentColor"/>
<path d="M252.577 92.3508V129.234H378.287V92.3508H252.577Z" fill="currentColor"/>
<path d="M252.577 92.3508V129.234H340.882V92.3508H252.577Z" fill="currentColor"/>
<path d="M252.577 92.3508V129.234H326.325V92.3508H252.577Z" fill="currentColor"/>
<path d="M252.577 92.3508V129.234H298.754V92.3508H252.577Z" fill="currentColor"/>
<path d="M268.674 198.784C256.093 201.018 249.383 210.513 249.383 226.991C249.383 243.748 258.329 254.919 271.47 254.919C277.9 254.919 283.491 252.685 295.234 246.82C295.234 260.504 295.234 260.504 295.234 260.504C280.975 267.207 272.588 268.883 261.405 268.883C248.824 268.883 239.877 265.811 232.888 258.27C225.619 251.009 221.705 241.513 221.705 230.622C221.705 206.883 239.598 190.405 265.598 190.405C282.653 190.405 294.675 198.504 294.675 209.955C294.675 217.495 289.083 222.802 280.975 222.802C276.782 222.802 273.427 221.405 268.674 218.892" fill="currentColor"/>
<path d="M205.769 230.622C217.232 216.378 221.425 210.513 221.425 203.531C221.425 196.549 215.834 190.405 208.006 190.405C203.532 190.405 199.339 192.919 197.382 195.153C197.382 224.477 197.382 224.477 197.382 224.477C178.65 249.613 178.65 249.613 178.65 249.613C178.65 192.639 178.65 192.639 178.65 192.639C160.757 192.639 160.757 192.639 160.757 192.639C131.122 241.513 131.122 241.513 131.122 241.513C131.122 192.639 131.122 192.639 131.122 192.639C121.057 192.639 121.057 192.639 121.057 192.639C93.938 198.784 93.938 198.784 93.938 198.784C93.938 205.766 93.938 205.766 93.938 205.766C108.756 207.162 108.756 207.162 108.756 207.162C108.756 267.766 108.756 267.766 108.756 267.766C127.487 267.766 127.487 267.766 127.487 267.766C156.004 220.847 156.004 220.847 156.004 220.847C156.004 267.766 156.004 267.766 156.004 267.766C176.972 267.766 176.972 267.766 176.972 267.766" fill="currentColor"/>
<path d="M37.1838 258.27C39.4204 258.27 39.9796 258.27 41.3775 258.27C56.4746 258.27 64.862 249.054 64.862 230.621C64.862 215.261 58.1521 206.883 45.5711 206.883C43.8937 206.883 41.3775 207.162 37.1838 208V258.27ZM37.1838 291.225C49.4852 294.018 49.4852 294.018 49.4852 294.018C49.4852 301 49.4852 301 49.4852 301C1.11831 301 1.11831 301 1.11831 301C1.11831 294.018 1.11831 294.018 1.11831 294.018C12.3014 291.225 12.3014 291.225 12.3014 291.225C12.3014 206.883 12.3014 206.883 12.3014 206.883C-1.51443e-06 206.883 0 206.883 0 206.883C0 199.901 0 199.901 0 199.901C29.3556 190.964 29.3556 190.964 29.3556 190.964C37.1838 190.964 37.1838 190.964 37.1838 190.964C37.1838 201.018 37.1838 201.018 37.1838 201.018C50.8831 192.639 55.6359 191.243 62.9049 191.243C79.1204 191.243 91.4218 206.324 91.4218 227.27C91.4218 251.288 74.9268 267.766 49.7648 267.766C46.969 267.766 42.2162 267.486 37.1838 267.207" fill="currentColor"/>
</g>
<defs>
<clipPath id="clip0_239_8146">
<rect width="397" height="301" fill="currentColor"/>
</clipPath>
</defs>
</svg>