<svg viewBox="0 0 1024 250" width="1024" height="250"  fill="none" xmlns="http://www.w3.org/2000/svg">
<path d="M352.171 192.72C351.968 193.696 351.179 194.095 350.195 194.095H335.963C334.978 194.095 334.385 193.696 333.991 192.72L297.228 73.0184C297.228 72.8309 297.033 72.4299 297.033 72.2346C297.033 71.0551 297.825 70.4719 299.21 70.4719H318.973C320.16 70.4719 320.749 70.8598 320.946 71.8467L343.48 151.512L365.016 71.8467C365.214 70.8598 365.805 70.4719 366.989 70.4719H386.95C388.333 70.4719 389.124 71.0551 389.124 72.2346C389.124 72.4299 388.924 72.8309 388.924 73.0184L352.171 192.72Z" fill="currentColor"/>
<path d="M424.5 194.093H405.732C404.347 194.093 403.753 193.505 403.753 192.133V72.4286C403.753 71.0538 404.347 70.4679 405.732 70.4679H424.5C425.687 70.4679 426.479 71.0538 426.479 72.4286V192.133C426.479 193.505 425.885 194.093 424.5 194.093Z" fill="currentColor"/>
<path d="M498.985 192.72C498.785 193.696 497.996 194.095 497.012 194.095H482.779C481.793 194.095 481.202 193.696 480.806 192.72L444.048 73.0184C444.048 72.8309 443.85 72.4299 443.85 72.2346C443.85 71.0551 444.642 70.4719 446.024 70.4719H465.784C466.974 70.4719 467.565 70.8598 467.761 71.8467L490.294 151.512L511.83 71.8467C512.03 70.8598 512.621 70.4719 513.806 70.4719H533.767C535.152 70.4719 535.941 71.0551 535.941 72.2346C535.941 72.4299 535.741 72.8309 535.741 73.0184L498.985 192.72Z" fill="currentColor"/>
<path d="M621.706 192.323C621.706 193.505 620.922 194.093 619.537 194.093H599.576C598.391 194.093 597.798 193.697 597.602 192.721L591.671 172.117C591.478 171.13 590.882 170.935 589.697 170.935H561.438C560.248 170.935 559.657 171.13 559.464 172.117L553.525 192.721C553.335 193.697 552.546 194.093 551.554 194.093H531.794C530.409 194.093 529.617 193.505 529.617 192.323C529.617 192.13 529.818 191.932 529.818 191.544L566.57 71.8451C566.974 70.8635 567.362 70.4703 568.547 70.4703H582.779C583.763 70.4703 584.357 70.8635 584.758 71.8451L621.513 191.544C621.513 191.932 621.706 192.13 621.706 192.323ZM578.233 121.882C578.032 120.703 577.248 117.169 576.061 111.087H575.465C574.082 117.169 573.293 120.703 573.098 121.882L566.375 147.785C566.375 147.98 566.18 148.371 566.18 148.566C566.18 149.745 566.974 150.334 568.356 150.334H582.779C584.159 150.334 584.953 149.745 584.953 148.566C584.953 148.371 584.758 147.98 584.758 147.785L578.233 121.882Z" fill="currentColor"/>
<path d="M722.49 192.52C722.287 193.504 721.498 194.092 720.517 194.092H706.089C704.902 194.092 704.311 193.696 704.113 192.72L684.155 115.015L664.392 192.72C664.191 193.696 663.598 194.092 662.413 194.092H647.988C646.993 194.092 646.21 193.504 646.014 192.52L619.924 72.831C619.924 72.6305 619.729 72.2373 619.729 72.042C619.729 71.0552 620.518 70.4719 621.898 70.4719H642.057C643.049 70.4719 643.835 71.0552 644.035 72.042L658.46 151.908L677.234 71.4562C677.439 70.4719 678.028 70.0813 679.207 70.0813H689.094C690.279 70.0813 690.87 70.4719 691.068 71.4562L709.838 151.908L724.464 72.042C724.664 71.0552 725.453 70.4719 726.44 70.4719H746.596C747.979 70.4719 748.773 71.0552 748.773 72.042C748.773 72.2373 748.575 72.6305 748.575 72.831L722.49 192.52Z" fill="currentColor"/>
<path d="M837.116 194.093H767.355C765.973 194.093 765.379 193.505 765.379 192.133V72.4286C765.379 71.0538 765.973 70.4679 767.355 70.4679H837.116C838.296 70.4679 839.09 71.0538 839.09 72.4286V89.1163C839.09 90.4833 838.501 91.0744 837.116 91.0744H790.084C788.699 91.0744 788.11 91.6628 788.11 93.0376V119.135C788.11 120.51 788.699 121.096 790.084 121.096H828.617C829.997 121.096 830.594 121.69 830.594 123.059V139.734C830.594 141.109 829.997 141.705 828.617 141.705H790.084C788.699 141.705 788.11 142.291 788.11 143.666V171.529C788.11 172.904 788.699 173.49 790.084 173.49H837.116C838.296 173.49 839.09 174.075 839.09 175.45V192.133C839.09 193.505 838.501 194.093 837.116 194.093Z" fill="currentColor"/>
<path d="M882 103.242C882 112.462 891.087 115.206 904.921 121.489C926.064 131.103 935.948 141.895 935.948 161.325C935.948 182.119 921.523 196.052 899.188 196.052H891.285C880.021 196.052 871.522 192.917 865.596 186.837C859.071 180.161 856.504 174.471 856.504 172.503C856.504 172.118 856.902 171.529 857.688 171.128L874.881 162.7C875.28 162.502 875.475 162.502 875.871 162.502C877.259 162.502 877.646 164.46 879.62 168.381C881.797 172.503 886.742 175.448 891.285 175.448H899.188C906.892 175.448 913.423 169.173 913.423 161.325C913.423 151.511 905.116 147.98 892.277 141.895C870.538 131.501 859.475 122.672 859.475 103.242C859.475 82.4404 874.092 68.5101 896.227 68.5101H899.188C908.277 68.5101 915.394 70.4707 921.718 74.9831C929.423 80.4745 934.365 89.304 934.365 91.663C934.365 92.4493 933.972 92.8373 933.178 93.2305L915.987 101.669C915.592 101.867 915.191 101.867 915 101.867C914.011 101.867 913.615 100.69 912.428 98.9198C908.676 92.6446 905.314 89.1139 899.188 89.1139H896.227C888.515 89.1139 882 95.1989 882 103.242Z" fill="currentColor"/>
<path d="M1017.17 91.0769H995.629C994.246 91.0769 993.658 91.6628 993.658 93.0376V192.133C993.658 193.508 993.056 194.096 991.673 194.096H973.103C971.723 194.096 971.122 193.508 971.122 192.133V93.0376C971.122 91.6628 970.531 91.0769 969.148 91.0769H947.609C946.227 91.0769 945.636 90.4833 945.636 89.1163V72.4312C945.636 71.0563 946.227 70.4705 947.609 70.4705H1017.17C1018.35 70.4705 1019.15 71.0563 1019.15 72.4312V89.1163C1019.15 90.4833 1018.55 91.0769 1017.17 91.0769Z" fill="currentColor"/>
<path d="M133.612 106.806L97.4664 13.0773L114.316 6.67194L150.461 100.398L133.612 106.806Z" fill="currentColor"/>
<path d="M84.0415 245.329L66.6299 240.673L92.8605 143.749L110.282 148.397L84.0415 245.329Z" fill="currentColor"/>
<path d="M214.251 223.821L129.524 169.086L139.361 154.07L224.086 208.797L214.251 223.821Z" fill="currentColor"/>
<path d="M165.127 142.297L153.78 128.372L232.383 65.266L243.728 79.1885L165.127 142.297Z" fill="currentColor"/>
<path d="M106.748 119.052L5.79665 124.306L4.84888 106.343L105.806 101.088L106.748 119.052Z" fill="currentColor"/>
</svg>