<svg viewBox="0 0 566.9290161132812 566.9290161132812" width="566.9290161132812" height="566.9290161132812"  fill="none" xmlns="http://www.w3.org/2000/svg">
<g clip-path="url(#clip0_239_8249)">
<path fill-rule="evenodd" clip-rule="evenodd" d="M0 566.929C180.312 486.002 386.617 486.002 566.929 566.929V0H0V566.929ZM38.432 200.019C39.482 184.861 52.039 173.075 67.233 172.985L79.248 172.896C74.212 191.98 52.567 216.187 52.567 216.187C17.404 253.028 21.115 283.42 21.115 283.42H122.538V243.31H109.286C109.286 243.31 106.901 270.344 83.842 270.344H67.763C68.47 256.12 96.388 223.696 96.388 223.696C125.719 190.919 124.924 159.997 124.924 159.997H25.709V200.019H38.432ZM319.908 283.332V270.257H316.904C311.448 270.266 307.018 265.85 307.009 260.395V260.362V182.969C307 177.513 311.416 173.083 316.871 173.074H316.904H319.908V159.999H254.089V173.075H257.093C262.559 173.028 267.029 177.421 267.076 182.888V182.97V260.363C267.074 265.83 262.642 270.26 257.175 270.258H257.093H254.089V283.334L319.908 283.332ZM240.483 243.31V283.42L135.968 283.331V270.256H138.972H139.005C144.46 270.247 148.876 265.817 148.867 260.361V182.968V182.935C148.858 177.48 144.428 173.064 138.972 173.073H135.968V159.909H240.482V200.019H227.23C227.23 200.019 224.756 172.985 201.697 172.985H188.445V215.039H193.127H193.26C198.737 215.003 203.148 210.533 203.111 205.056V200.02H216.187V243.221H203.111V238.274V238.141C203.075 232.664 198.605 228.253 193.128 228.29H188.446V270.344H201.698C224.757 270.344 227.231 243.31 227.231 243.31H240.483ZM388.996 172.985C404.195 173.023 416.757 184.85 417.709 200.019H430.519V159.997H335.722C335.722 159.997 320.703 179.61 359.929 223.696C359.929 223.696 387.759 256.12 388.465 270.344H372.474C349.415 270.344 346.941 243.31 346.941 243.31H333.6V283.42H429.193C429.193 283.42 446.598 264.69 403.572 216.187C403.572 216.187 381.043 193.04 376.891 172.896L388.996 172.985ZM528.586 200.019C527.593 184.869 515.055 173.065 499.873 172.985L487.944 172.896C492.008 193.04 514.537 216.187 514.537 216.187C557.474 264.69 540.158 283.42 540.158 283.42H444.566V243.31H457.818C457.818 243.31 460.292 270.344 483.351 270.344H499.342C498.636 256.12 470.806 223.696 470.806 223.696C431.58 179.61 446.599 159.997 446.599 159.997H541.308V200.019H528.586Z" fill="currentColor"/>
</g>
<defs>
<clipPath id="clip0_239_8249">
<rect width="566.929" height="566.929" fill="currentColor"/>
</clipPath>
</defs>
</svg>